<mxfile host="65bd71144e" modified="2021-01-24T02:55:08.373Z" agent="5.0 (Macintosh; Intel Mac OS X 11_0_0) AppleWebKit/537.36 (KHTML, like Gecko) Code/1.52.1 Chrome/83.0.4103.122 Electron/9.3.5 Safari/537.36" etag="gl2ehfakZz6WL4RUHsl2" version="13.10.0" type="embed">
    <diagram id="GFjenZ3mAvN2gmw_pfTl" name="第 1 页">
        <mxGraphModel dx="1685" dy="584" grid="1" gridSize="10" guides="1" tooltips="1" connect="1" arrows="1" fold="1" page="1" pageScale="1" pageWidth="827" pageHeight="1169" math="0" shadow="0">
            <root>
                <mxCell id="0"/>
                <mxCell id="1" parent="0"/>
                <mxCell id="164" value="6. 静态文件，&lt;br&gt;server" style="ellipse;shape=cloud;whiteSpace=wrap;html=1;fillColor=#d5e8d4;strokeColor=#82b366;" vertex="1" parent="1">
                    <mxGeometry x="90" y="2300" width="360" height="240" as="geometry"/>
                </mxCell>
                <mxCell id="128" value="" style="rounded=1;whiteSpace=wrap;html=1;" parent="1" vertex="1">
                    <mxGeometry x="15" y="2140" width="575" height="110" as="geometry"/>
                </mxCell>
                <mxCell id="85" value="" style="shape=process;whiteSpace=wrap;html=1;backgroundOutline=1;strokeColor=#000000;" parent="1" vertex="1">
                    <mxGeometry x="740" y="1581" width="145" height="89" as="geometry"/>
                </mxCell>
                <mxCell id="66" value="" style="rounded=0;whiteSpace=wrap;html=1;strokeColor=#000000;" parent="1" vertex="1">
                    <mxGeometry x="720" y="1180" width="30" height="290" as="geometry"/>
                </mxCell>
                <mxCell id="43" value="" style="rounded=1;whiteSpace=wrap;html=1;strokeColor=#000000;" parent="1" vertex="1">
                    <mxGeometry x="960" y="630" width="530" height="310" as="geometry"/>
                </mxCell>
                <mxCell id="35" value="" style="rounded=0;whiteSpace=wrap;html=1;" parent="1" vertex="1">
                    <mxGeometry x="1450" y="505" width="200" height="175" as="geometry"/>
                </mxCell>
                <mxCell id="2" value="HTTP 协议" style="rounded=0;whiteSpace=wrap;html=1;" parent="1" vertex="1">
                    <mxGeometry x="80" y="200" width="990" height="60" as="geometry"/>
                </mxCell>
                <mxCell id="5" style="edgeStyle=orthogonalEdgeStyle;rounded=0;orthogonalLoop=1;jettySize=auto;html=1;curved=1;" parent="1" source="3" target="4" edge="1">
                    <mxGeometry relative="1" as="geometry">
                        <Array as="points">
                            <mxPoint x="150" y="90"/>
                        </Array>
                    </mxGeometry>
                </mxCell>
                <mxCell id="18" style="endArrow=none;html=1;fontFamily=Helvetica;fontSize=11;fontColor=#000000;align=center;strokeColor=#000000;edgeStyle=orthogonalEdgeStyle;" parent="1" source="3" target="17" edge="1">
                    <mxGeometry relative="1" as="geometry"/>
                </mxCell>
                <mxCell id="3" value="浏览器" style="ellipse;whiteSpace=wrap;html=1;aspect=fixed;" parent="1" vertex="1">
                    <mxGeometry x="80" y="370" width="80" height="80" as="geometry"/>
                </mxCell>
                <mxCell id="7" style="edgeStyle=orthogonalEdgeStyle;curved=1;rounded=0;orthogonalLoop=1;jettySize=auto;html=1;" parent="1" source="4" target="6" edge="1">
                    <mxGeometry relative="1" as="geometry"/>
                </mxCell>
                <mxCell id="4" value="1. 自己写的一个server" style="ellipse;shape=cloud;whiteSpace=wrap;html=1;fillColor=#d5e8d4;strokeColor=#82b366;" parent="1" vertex="1">
                    <mxGeometry x="280" y="40" width="180" height="100" as="geometry"/>
                </mxCell>
                <mxCell id="6" value="&lt;h1&gt;打印http请求内容&lt;/h1&gt;&lt;p&gt;http的头&lt;/p&gt;&lt;p&gt;http的body/data&lt;/p&gt;&lt;p&gt;http的methed&lt;/p&gt;" style="text;html=1;strokeColor=none;fillColor=none;spacing=5;spacingTop=-20;whiteSpace=wrap;overflow=hidden;rounded=0;" parent="1" vertex="1">
                    <mxGeometry x="520" y="30" width="300" height="120" as="geometry"/>
                </mxCell>
                <mxCell id="9" style="edgeStyle=orthogonalEdgeStyle;curved=1;rounded=0;orthogonalLoop=1;jettySize=auto;html=1;" parent="1" source="8" target="4" edge="1">
                    <mxGeometry relative="1" as="geometry"/>
                </mxCell>
                <mxCell id="11" style="edgeStyle=orthogonalEdgeStyle;curved=1;rounded=0;orthogonalLoop=1;jettySize=auto;html=1;" parent="1" source="8" target="10" edge="1">
                    <mxGeometry relative="1" as="geometry"/>
                </mxCell>
                <mxCell id="19" style="endArrow=none;html=1;fontFamily=Helvetica;fontSize=11;fontColor=#000000;align=center;strokeColor=#000000;edgeStyle=orthogonalEdgeStyle;" parent="1" source="8" target="17" edge="1">
                    <mxGeometry relative="1" as="geometry">
                        <Array as="points">
                            <mxPoint x="500" y="410"/>
                            <mxPoint x="500" y="500"/>
                            <mxPoint x="420" y="500"/>
                        </Array>
                    </mxGeometry>
                </mxCell>
                <mxCell id="8" value="2. 自己写一个脚本/请求" style="shape=tape;whiteSpace=wrap;html=1;fillColor=#d5e8d4;strokeColor=#82b366;" parent="1" vertex="1">
                    <mxGeometry x="354" y="320" width="120" height="100" as="geometry"/>
                </mxCell>
                <mxCell id="10" value="&lt;h1&gt;打印http相应内容&lt;/h1&gt;&lt;p&gt;http的头&lt;/p&gt;&lt;p&gt;http的body/data&lt;/p&gt;&lt;p&gt;http的methed&lt;/p&gt;" style="text;html=1;strokeColor=none;fillColor=none;spacing=5;spacingTop=-20;whiteSpace=wrap;overflow=hidden;rounded=0;" parent="1" vertex="1">
                    <mxGeometry x="530" y="350" width="210" height="120" as="geometry"/>
                </mxCell>
                <mxCell id="12" value="其它的三方网站&lt;br&gt;比如，百度" style="ellipse;shape=cloud;whiteSpace=wrap;html=1;" parent="1" vertex="1">
                    <mxGeometry x="830" y="90" width="120" height="80" as="geometry"/>
                </mxCell>
                <mxCell id="14" style="edgeStyle=orthogonalEdgeStyle;curved=1;rounded=0;orthogonalLoop=1;jettySize=auto;html=1;" parent="1" source="13" target="12" edge="1">
                    <mxGeometry relative="1" as="geometry"/>
                </mxCell>
                <mxCell id="16" style="edgeStyle=orthogonalEdgeStyle;curved=1;rounded=0;orthogonalLoop=1;jettySize=auto;html=1;entryX=0;entryY=0.5;entryDx=0;entryDy=0;" parent="1" source="13" target="15" edge="1">
                    <mxGeometry relative="1" as="geometry"/>
                </mxCell>
                <mxCell id="13" value="3. 自己写一个脚本/请求百度" style="shape=tape;whiteSpace=wrap;html=1;fillColor=#d5e8d4;strokeColor=#82b366;" parent="1" vertex="1">
                    <mxGeometry x="790" y="340" width="120" height="100" as="geometry"/>
                </mxCell>
                <mxCell id="15" value="&lt;h1&gt;打印http相应内容&lt;/h1&gt;&lt;p&gt;http的头&lt;/p&gt;&lt;p&gt;http的body/data&lt;/p&gt;&lt;p&gt;http的methed&lt;/p&gt;" style="text;html=1;strokeColor=none;fillColor=none;spacing=5;spacingTop=-20;whiteSpace=wrap;overflow=hidden;rounded=0;" parent="1" vertex="1">
                    <mxGeometry x="1000" y="330" width="210" height="120" as="geometry"/>
                </mxCell>
                <mxCell id="17" value="不论形式是什么，核心的概念，都是http请求。" style="shape=hexagon;perimeter=hexagonPerimeter2;whiteSpace=wrap;html=1;fixedSize=1;" parent="1" vertex="1">
                    <mxGeometry x="80" y="565" width="680" height="40" as="geometry"/>
                </mxCell>
                <mxCell id="22" style="endArrow=none;html=1;fontFamily=Helvetica;fontSize=11;fontColor=#000000;align=center;strokeColor=#000000;edgeStyle=orthogonalEdgeStyle;" parent="1" source="21" target="17" edge="1">
                    <mxGeometry relative="1" as="geometry">
                        <Array as="points">
                            <mxPoint x="260" y="460"/>
                            <mxPoint x="420" y="460"/>
                        </Array>
                    </mxGeometry>
                </mxCell>
                <mxCell id="21" value="其它的，&lt;br&gt;网络请求工具" style="shape=cube;whiteSpace=wrap;html=1;boundedLbl=1;backgroundOutline=1;darkOpacity=0.05;darkOpacity2=0.1;" parent="1" vertex="1">
                    <mxGeometry x="200" y="350" width="120" height="80" as="geometry"/>
                </mxCell>
                <mxCell id="28" value="" style="group" parent="1" vertex="1" connectable="0">
                    <mxGeometry x="970" y="650" width="300" height="150" as="geometry"/>
                </mxCell>
                <mxCell id="26" value="" style="rounded=0;whiteSpace=wrap;html=1;" parent="28" vertex="1">
                    <mxGeometry width="300" height="150" as="geometry"/>
                </mxCell>
                <mxCell id="23" value="处理请求" style="ellipse;whiteSpace=wrap;html=1;aspect=fixed;fillColor=#e1d5e7;strokeColor=#9673a6;" parent="28" vertex="1">
                    <mxGeometry x="200" y="30" width="80" height="80" as="geometry"/>
                </mxCell>
                <mxCell id="24" value="写UI" style="ellipse;whiteSpace=wrap;html=1;aspect=fixed;fillColor=#fff2cc;strokeColor=#d6b656;" parent="28" vertex="1">
                    <mxGeometry x="20" y="30" width="80" height="80" as="geometry"/>
                </mxCell>
                <mxCell id="25" value="" style="endArrow=classic;startArrow=classic;html=1;" parent="28" source="24" target="23" edge="1">
                    <mxGeometry width="50" height="50" relative="1" as="geometry">
                        <mxPoint x="130" y="100" as="sourcePoint"/>
                        <mxPoint x="180" y="50" as="targetPoint"/>
                    </mxGeometry>
                </mxCell>
                <mxCell id="27" value="前端" style="text;html=1;strokeColor=none;fillColor=none;align=center;verticalAlign=middle;whiteSpace=wrap;rounded=0;" parent="28" vertex="1">
                    <mxGeometry x="134" y="120" width="40" height="20" as="geometry"/>
                </mxCell>
                <mxCell id="29" value="请求是浏览器异步发出" style="rhombus;whiteSpace=wrap;html=1;" parent="1" vertex="1">
                    <mxGeometry x="1330" y="545" width="80" height="80" as="geometry"/>
                </mxCell>
                <mxCell id="42" style="endArrow=none;html=1;fontFamily=Helvetica;fontSize=11;fontColor=#000000;align=center;strokeColor=#000000;edgeStyle=orthogonalEdgeStyle;" parent="1" source="30" target="41" edge="1">
                    <mxGeometry relative="1" as="geometry">
                        <Array as="points">
                            <mxPoint x="1390" y="880"/>
                        </Array>
                    </mxGeometry>
                </mxCell>
                <mxCell id="30" value="请求直接抵达&lt;br&gt;服务器的" style="shape=parallelogram;perimeter=parallelogramPerimeter;whiteSpace=wrap;html=1;fixedSize=1;" parent="1" vertex="1">
                    <mxGeometry x="1330" y="750" width="120" height="60" as="geometry"/>
                </mxCell>
                <mxCell id="31" style="edgeStyle=orthogonalEdgeStyle;curved=1;rounded=0;orthogonalLoop=1;jettySize=auto;html=1;entryX=0;entryY=0.5;entryDx=0;entryDy=0;" parent="1" source="23" target="29" edge="1">
                    <mxGeometry relative="1" as="geometry"/>
                </mxCell>
                <mxCell id="32" style="edgeStyle=orthogonalEdgeStyle;curved=1;rounded=0;orthogonalLoop=1;jettySize=auto;html=1;entryX=0;entryY=0.5;entryDx=0;entryDy=0;" parent="1" source="23" target="30" edge="1">
                    <mxGeometry relative="1" as="geometry"/>
                </mxCell>
                <mxCell id="33" value="后端的&lt;br&gt;业务逻辑&lt;br&gt;（服务器）" style="ellipse;whiteSpace=wrap;html=1;aspect=fixed;" parent="1" vertex="1">
                    <mxGeometry x="1510" y="565" width="80" height="80" as="geometry"/>
                </mxCell>
                <mxCell id="34" value="" style="endArrow=classic;startArrow=classic;html=1;entryX=0;entryY=0.5;entryDx=0;entryDy=0;exitX=1;exitY=0.5;exitDx=0;exitDy=0;" parent="1" source="29" target="33" edge="1">
                    <mxGeometry width="50" height="50" relative="1" as="geometry">
                        <mxPoint x="1480" y="560" as="sourcePoint"/>
                        <mxPoint x="1530" y="510" as="targetPoint"/>
                    </mxGeometry>
                </mxCell>
                <mxCell id="36" value="后端" style="text;html=1;strokeColor=none;fillColor=none;align=center;verticalAlign=middle;whiteSpace=wrap;rounded=0;" parent="1" vertex="1">
                    <mxGeometry x="1480" y="520" width="40" height="20" as="geometry"/>
                </mxCell>
                <mxCell id="37" value="接口" style="text;html=1;strokeColor=none;fillColor=none;align=center;verticalAlign=middle;whiteSpace=wrap;rounded=0;" parent="1" vertex="1">
                    <mxGeometry x="1320" y="545" width="40" height="20" as="geometry"/>
                </mxCell>
                <mxCell id="39" value="" style="edgeStyle=orthogonalEdgeStyle;curved=1;rounded=0;orthogonalLoop=1;jettySize=auto;html=1;" parent="1" source="38" target="37" edge="1">
                    <mxGeometry relative="1" as="geometry"/>
                </mxCell>
                <mxCell id="38" value="http协议：//（域名/ip/地址）/路径&lt;br&gt;+&lt;br&gt;http里带的数据" style="text;html=1;fillColor=none;align=center;verticalAlign=middle;whiteSpace=wrap;rounded=0;strokeColor=#000000;" parent="1" vertex="1">
                    <mxGeometry x="1150" y="420" width="260" height="70" as="geometry"/>
                </mxCell>
                <mxCell id="41" value="后端的&lt;br&gt;业务逻辑&lt;br&gt;（服务器）" style="ellipse;whiteSpace=wrap;html=1;aspect=fixed;" parent="1" vertex="1">
                    <mxGeometry x="1090" y="840" width="80" height="80" as="geometry"/>
                </mxCell>
                <mxCell id="44" value="前端，后端在一起" style="text;html=1;strokeColor=none;fillColor=none;align=center;verticalAlign=middle;whiteSpace=wrap;rounded=0;" parent="1" vertex="1">
                    <mxGeometry x="1330" y="900" width="120" height="30" as="geometry"/>
                </mxCell>
                <mxCell id="46" style="edgeStyle=orthogonalEdgeStyle;curved=1;rounded=0;orthogonalLoop=1;jettySize=auto;html=1;" parent="1" source="45" target="23" edge="1">
                    <mxGeometry relative="1" as="geometry"/>
                </mxCell>
                <mxCell id="45" value="服务出处理ui结果" style="ellipse;whiteSpace=wrap;html=1;aspect=fixed;strokeColor=#000000;" parent="1" vertex="1">
                    <mxGeometry x="1240" y="840" width="80" height="80" as="geometry"/>
                </mxCell>
                <mxCell id="47" value="4. 写的一个server&lt;br&gt;代理文件服务，&lt;br&gt;静态服务器" style="ellipse;shape=cloud;whiteSpace=wrap;html=1;fillColor=#d5e8d4;strokeColor=#82b366;" parent="1" vertex="1">
                    <mxGeometry x="215" y="800" width="180" height="100" as="geometry"/>
                </mxCell>
                <mxCell id="48" value="静态服务器" style="text;html=1;strokeColor=none;fillColor=none;align=center;verticalAlign=middle;whiteSpace=wrap;rounded=0;" parent="1" vertex="1">
                    <mxGeometry x="770" y="1200" width="100" height="20" as="geometry"/>
                </mxCell>
                <mxCell id="51" value="请求" style="ellipse;whiteSpace=wrap;html=1;aspect=fixed;strokeColor=#000000;" parent="1" vertex="1">
                    <mxGeometry x="414" y="1230" width="80" height="80" as="geometry"/>
                </mxCell>
                <mxCell id="57" style="edgeStyle=orthogonalEdgeStyle;curved=1;rounded=0;orthogonalLoop=1;jettySize=auto;html=1;" parent="1" source="54" target="56" edge="1">
                    <mxGeometry relative="1" as="geometry"/>
                </mxCell>
                <mxCell id="63" style="edgeStyle=orthogonalEdgeStyle;curved=1;rounded=0;orthogonalLoop=1;jettySize=auto;html=1;entryX=0.5;entryY=1;entryDx=0;entryDy=0;" parent="1" source="53" target="51" edge="1">
                    <mxGeometry relative="1" as="geometry">
                        <Array as="points">
                            <mxPoint x="820" y="1350"/>
                            <mxPoint x="454" y="1350"/>
                        </Array>
                    </mxGeometry>
                </mxCell>
                <mxCell id="64" value="有文件，就回传文件数据&lt;br&gt;&lt;br&gt;没有文件回复404找不到文件&lt;br&gt;或者&lt;br&gt;500 服务器错误" style="edgeLabel;html=1;align=center;verticalAlign=middle;resizable=0;points=[];" parent="63" vertex="1" connectable="0">
                    <mxGeometry x="0.0794" y="4" relative="1" as="geometry">
                        <mxPoint as="offset"/>
                    </mxGeometry>
                </mxCell>
                <mxCell id="53" value="" style="ellipse;shape=cloud;whiteSpace=wrap;html=1;strokeColor=#000000;" parent="1" vertex="1">
                    <mxGeometry x="760" y="1230" width="120" height="80" as="geometry"/>
                </mxCell>
                <mxCell id="56" value="硬盘/某个文件夹" style="shape=cube;whiteSpace=wrap;html=1;boundedLbl=1;backgroundOutline=1;darkOpacity=0.05;darkOpacity2=0.1;strokeColor=#000000;" parent="1" vertex="1">
                    <mxGeometry x="990" y="1330" width="120" height="80" as="geometry"/>
                </mxCell>
                <mxCell id="54" value="检查路径" style="text;html=1;strokeColor=none;fillColor=none;align=center;verticalAlign=middle;whiteSpace=wrap;rounded=0;" parent="1" vertex="1">
                    <mxGeometry x="940" y="1275" width="70" height="10" as="geometry"/>
                </mxCell>
                <mxCell id="59" style="edgeStyle=orthogonalEdgeStyle;curved=1;rounded=0;orthogonalLoop=1;jettySize=auto;html=1;" parent="1" source="53" target="54" edge="1">
                    <mxGeometry relative="1" as="geometry">
                        <mxPoint x="880" y="1270" as="sourcePoint"/>
                        <mxPoint x="1050" y="1330" as="targetPoint"/>
                    </mxGeometry>
                </mxCell>
                <mxCell id="65" value="" style="edgeStyle=orthogonalEdgeStyle;curved=1;rounded=0;orthogonalLoop=1;jettySize=auto;html=1;" parent="1" source="55" target="53" edge="1">
                    <mxGeometry relative="1" as="geometry"/>
                </mxCell>
                <mxCell id="55" value="get请求" style="text;html=1;strokeColor=none;fillColor=none;align=center;verticalAlign=middle;whiteSpace=wrap;rounded=0;" parent="1" vertex="1">
                    <mxGeometry x="590" y="1230" width="70" height="10" as="geometry"/>
                </mxCell>
                <mxCell id="60" style="edgeStyle=orthogonalEdgeStyle;curved=1;rounded=0;orthogonalLoop=1;jettySize=auto;html=1;" parent="1" source="51" target="55" edge="1">
                    <mxGeometry relative="1" as="geometry">
                        <mxPoint x="750" y="1270" as="targetPoint"/>
                        <mxPoint x="494" y="1270" as="sourcePoint"/>
                    </mxGeometry>
                </mxCell>
                <mxCell id="61" value="xx地址/aaa/bbb/ccc.html" style="text;html=1;align=center;verticalAlign=middle;resizable=0;points=[];autosize=1;" parent="1" vertex="1">
                    <mxGeometry x="550" y="1200" width="150" height="20" as="geometry"/>
                </mxCell>
                <mxCell id="62" value="某个硬盘的位置/aaa/bbb/ccc.html" style="text;html=1;align=center;verticalAlign=middle;resizable=0;points=[];autosize=1;" parent="1" vertex="1">
                    <mxGeometry x="910" y="1245" width="190" height="20" as="geometry"/>
                </mxCell>
                <mxCell id="67" value="http协议" style="text;html=1;align=center;verticalAlign=middle;resizable=0;points=[];autosize=1;" parent="1" vertex="1">
                    <mxGeometry x="705" y="1149" width="60" height="20" as="geometry"/>
                </mxCell>
                <mxCell id="68" value="" style="rounded=0;whiteSpace=wrap;html=1;strokeColor=#000000;" parent="1" vertex="1">
                    <mxGeometry x="705" y="1531" width="30" height="290" as="geometry"/>
                </mxCell>
                <mxCell id="69" value="动态服务器" style="text;html=1;strokeColor=none;fillColor=none;align=center;verticalAlign=middle;whiteSpace=wrap;rounded=0;" parent="1" vertex="1">
                    <mxGeometry x="760" y="1551" width="100" height="20" as="geometry"/>
                </mxCell>
                <mxCell id="70" value="请求" style="ellipse;whiteSpace=wrap;html=1;aspect=fixed;strokeColor=#000000;" parent="1" vertex="1">
                    <mxGeometry x="404" y="1581" width="80" height="80" as="geometry"/>
                </mxCell>
                <mxCell id="71" style="edgeStyle=orthogonalEdgeStyle;curved=1;rounded=0;orthogonalLoop=1;jettySize=auto;html=1;" parent="1" source="76" target="75" edge="1">
                    <mxGeometry relative="1" as="geometry"/>
                </mxCell>
                <mxCell id="72" style="edgeStyle=orthogonalEdgeStyle;curved=1;rounded=0;orthogonalLoop=1;jettySize=auto;html=1;entryX=0.5;entryY=1;entryDx=0;entryDy=0;" parent="1" source="74" target="70" edge="1">
                    <mxGeometry relative="1" as="geometry">
                        <Array as="points">
                            <mxPoint x="810" y="1701"/>
                            <mxPoint x="444" y="1701"/>
                        </Array>
                    </mxGeometry>
                </mxCell>
                <mxCell id="73" value="有文件，就回传文件数据&lt;br&gt;&lt;br&gt;没有文件回复404找不到文件&lt;br&gt;或者&lt;br&gt;500 服务器错误" style="edgeLabel;html=1;align=center;verticalAlign=middle;resizable=0;points=[];" parent="72" vertex="1" connectable="0">
                    <mxGeometry x="0.0794" y="4" relative="1" as="geometry">
                        <mxPoint as="offset"/>
                    </mxGeometry>
                </mxCell>
                <mxCell id="74" value="" style="ellipse;shape=cloud;whiteSpace=wrap;html=1;strokeColor=#000000;" parent="1" vertex="1">
                    <mxGeometry x="750" y="1581" width="120" height="80" as="geometry"/>
                </mxCell>
                <mxCell id="75" value="硬盘/某个文件夹" style="shape=cube;whiteSpace=wrap;html=1;boundedLbl=1;backgroundOutline=1;darkOpacity=0.05;darkOpacity2=0.1;strokeColor=#000000;" parent="1" vertex="1">
                    <mxGeometry x="1030" y="1780" width="120" height="80" as="geometry"/>
                </mxCell>
                <mxCell id="76" value="检查路径" style="text;html=1;strokeColor=none;fillColor=none;align=center;verticalAlign=middle;whiteSpace=wrap;rounded=0;" parent="1" vertex="1">
                    <mxGeometry x="910" y="1730" width="70" height="10" as="geometry"/>
                </mxCell>
                <mxCell id="77" style="edgeStyle=orthogonalEdgeStyle;curved=1;rounded=0;orthogonalLoop=1;jettySize=auto;html=1;" parent="1" source="74" target="76" edge="1">
                    <mxGeometry relative="1" as="geometry">
                        <mxPoint x="870" y="1621" as="sourcePoint"/>
                        <mxPoint x="1040" y="1681" as="targetPoint"/>
                        <Array as="points">
                            <mxPoint x="810" y="1730"/>
                        </Array>
                    </mxGeometry>
                </mxCell>
                <mxCell id="78" value="" style="edgeStyle=orthogonalEdgeStyle;curved=1;rounded=0;orthogonalLoop=1;jettySize=auto;html=1;" parent="1" source="79" target="74" edge="1">
                    <mxGeometry relative="1" as="geometry"/>
                </mxCell>
                <mxCell id="79" value="get请求" style="text;html=1;strokeColor=none;fillColor=none;align=center;verticalAlign=middle;whiteSpace=wrap;rounded=0;" parent="1" vertex="1">
                    <mxGeometry x="580" y="1581" width="70" height="10" as="geometry"/>
                </mxCell>
                <mxCell id="80" style="edgeStyle=orthogonalEdgeStyle;curved=1;rounded=0;orthogonalLoop=1;jettySize=auto;html=1;" parent="1" source="70" target="79" edge="1">
                    <mxGeometry relative="1" as="geometry">
                        <mxPoint x="740" y="1621" as="targetPoint"/>
                        <mxPoint x="484" y="1621" as="sourcePoint"/>
                    </mxGeometry>
                </mxCell>
                <mxCell id="81" value="xx地址/aaa/bbb/ccc.html" style="text;html=1;align=center;verticalAlign=middle;resizable=0;points=[];autosize=1;" parent="1" vertex="1">
                    <mxGeometry x="540" y="1551" width="150" height="20" as="geometry"/>
                </mxCell>
                <mxCell id="82" value="某个硬盘的位置/aaa/bbb/ccc.html" style="text;html=1;align=center;verticalAlign=middle;resizable=0;points=[];autosize=1;" parent="1" vertex="1">
                    <mxGeometry x="860" y="1700" width="190" height="20" as="geometry"/>
                </mxCell>
                <mxCell id="83" value="http协议" style="text;html=1;align=center;verticalAlign=middle;resizable=0;points=[];autosize=1;" parent="1" vertex="1">
                    <mxGeometry x="695" y="1500" width="60" height="20" as="geometry"/>
                </mxCell>
                <mxCell id="86" style="edgeStyle=orthogonalEdgeStyle;curved=1;rounded=0;orthogonalLoop=1;jettySize=auto;html=1;entryX=1;entryY=0.25;entryDx=0;entryDy=0;" parent="1" source="84" target="85" edge="1">
                    <mxGeometry relative="1" as="geometry"/>
                </mxCell>
                <mxCell id="88" value="处理程序" style="edgeLabel;html=1;align=center;verticalAlign=middle;resizable=0;points=[];" parent="86" vertex="1" connectable="0">
                    <mxGeometry x="0.0856" y="2" relative="1" as="geometry">
                        <mxPoint as="offset"/>
                    </mxGeometry>
                </mxCell>
                <mxCell id="84" value="asp，jsp，php&lt;br&gt;c/python/node" style="text;html=1;align=center;verticalAlign=middle;resizable=0;points=[];autosize=1;" parent="1" vertex="1">
                    <mxGeometry x="1070" y="1650" width="90" height="30" as="geometry"/>
                </mxCell>
                <mxCell id="90" style="edgeStyle=orthogonalEdgeStyle;curved=1;rounded=0;orthogonalLoop=1;jettySize=auto;html=1;" parent="1" source="89" edge="1">
                    <mxGeometry relative="1" as="geometry">
                        <mxPoint x="980" y="1620" as="targetPoint"/>
                    </mxGeometry>
                </mxCell>
                <mxCell id="89" value="某个处理程序，代理了这个路径&amp;nbsp; /aaa/bbb/ccc.html" style="text;html=1;align=center;verticalAlign=middle;resizable=0;points=[];autosize=1;" parent="1" vertex="1">
                    <mxGeometry x="960" y="1561" width="280" height="20" as="geometry"/>
                </mxCell>
                <mxCell id="91" value="HTTP 协议" style="rounded=0;whiteSpace=wrap;html=1;" parent="1" vertex="1">
                    <mxGeometry x="90" y="950" width="430" height="60" as="geometry"/>
                </mxCell>
                <mxCell id="94" style="edgeStyle=orthogonalEdgeStyle;curved=1;rounded=0;orthogonalLoop=1;jettySize=auto;html=1;" parent="1" source="93" target="47" edge="1">
                    <mxGeometry relative="1" as="geometry"/>
                </mxCell>
                <mxCell id="93" value="测试点&lt;br&gt;浏览器" style="ellipse;whiteSpace=wrap;html=1;aspect=fixed;strokeColor=#000000;" parent="1" vertex="1">
                    <mxGeometry x="135" y="1070" width="80" height="80" as="geometry"/>
                </mxCell>
                <mxCell id="95" value="硬盘上。&lt;br&gt;前端文件" style="shape=cube;whiteSpace=wrap;html=1;boundedLbl=1;backgroundOutline=1;darkOpacity=0.05;darkOpacity2=0.1;strokeColor=#6c8ebf;fillColor=#dae8fc;" parent="1" vertex="1">
                    <mxGeometry x="494" y="820" width="120" height="80" as="geometry"/>
                </mxCell>
                <mxCell id="96" value="" style="endArrow=classic;startArrow=classic;html=1;exitX=0.96;exitY=0.7;exitDx=0;exitDy=0;exitPerimeter=0;" parent="1" source="47" target="95" edge="1">
                    <mxGeometry width="50" height="50" relative="1" as="geometry">
                        <mxPoint x="410" y="890" as="sourcePoint"/>
                        <mxPoint x="460" y="840" as="targetPoint"/>
                    </mxGeometry>
                </mxCell>
                <mxCell id="97" value="路径" style="text;html=1;align=center;verticalAlign=middle;resizable=0;points=[];autosize=1;" parent="1" vertex="1">
                    <mxGeometry x="180" y="1040" width="40" height="20" as="geometry"/>
                </mxCell>
                <mxCell id="98" value="路径" style="text;html=1;align=center;verticalAlign=middle;resizable=0;points=[];autosize=1;" parent="1" vertex="1">
                    <mxGeometry x="410" y="840" width="40" height="20" as="geometry"/>
                </mxCell>
                <mxCell id="99" value="" style="endArrow=none;dashed=1;html=1;dashPattern=1 3;strokeWidth=2;" parent="1" source="97" target="98" edge="1">
                    <mxGeometry width="50" height="50" relative="1" as="geometry">
                        <mxPoint x="400" y="920" as="sourcePoint"/>
                        <mxPoint x="450" y="870" as="targetPoint"/>
                    </mxGeometry>
                </mxCell>
                <mxCell id="100" value="资料： https://www.expressjs.com.cn/starter/static-files.html" style="text;html=1;align=center;verticalAlign=middle;resizable=0;points=[];autosize=1;" parent="1" vertex="1">
                    <mxGeometry x="40" y="780" width="330" height="20" as="geometry"/>
                </mxCell>
                <mxCell id="101" value="5. 静态服务器&lt;br&gt;&lt;br&gt;增加，处理请求的接口" style="ellipse;shape=cloud;whiteSpace=wrap;html=1;fillColor=#d5e8d4;strokeColor=#82b366;" parent="1" vertex="1">
                    <mxGeometry x="215" y="1890" width="180" height="100" as="geometry"/>
                </mxCell>
                <mxCell id="102" value="HTTP 协议" style="rounded=0;whiteSpace=wrap;html=1;" parent="1" vertex="1">
                    <mxGeometry x="90" y="2040" width="430" height="60" as="geometry"/>
                </mxCell>
                <mxCell id="103" style="edgeStyle=orthogonalEdgeStyle;curved=1;rounded=0;orthogonalLoop=1;jettySize=auto;html=1;" parent="1" source="104" target="101" edge="1">
                    <mxGeometry relative="1" as="geometry">
                        <Array as="points">
                            <mxPoint x="130" y="1940"/>
                        </Array>
                    </mxGeometry>
                </mxCell>
                <mxCell id="117" style="edgeStyle=orthogonalEdgeStyle;rounded=0;orthogonalLoop=1;jettySize=auto;html=1;" parent="1" source="104" target="116" edge="1">
                    <mxGeometry relative="1" as="geometry"/>
                </mxCell>
                <mxCell id="104" value="页面1" style="ellipse;whiteSpace=wrap;html=1;aspect=fixed;strokeColor=#000000;" parent="1" vertex="1">
                    <mxGeometry x="120" y="2150" width="80" height="80" as="geometry"/>
                </mxCell>
                <mxCell id="105" value="硬盘上。&lt;br&gt;前端文件" style="shape=cube;whiteSpace=wrap;html=1;boundedLbl=1;backgroundOutline=1;darkOpacity=0.05;darkOpacity2=0.1;strokeColor=#6c8ebf;fillColor=#dae8fc;" parent="1" vertex="1">
                    <mxGeometry x="555" y="1920" width="120" height="80" as="geometry"/>
                </mxCell>
                <mxCell id="106" value="" style="endArrow=classic;startArrow=classic;html=1;exitX=0.96;exitY=0.7;exitDx=0;exitDy=0;exitPerimeter=0;" parent="1" source="101" target="105" edge="1">
                    <mxGeometry width="50" height="50" relative="1" as="geometry">
                        <mxPoint x="410" y="1980" as="sourcePoint"/>
                        <mxPoint x="460" y="1930" as="targetPoint"/>
                    </mxGeometry>
                </mxCell>
                <mxCell id="107" value="路径" style="text;html=1;align=center;verticalAlign=middle;resizable=0;points=[];autosize=1;" parent="1" vertex="1">
                    <mxGeometry x="180" y="2130" width="40" height="20" as="geometry"/>
                </mxCell>
                <mxCell id="108" value="路径" style="text;html=1;align=center;verticalAlign=middle;resizable=0;points=[];autosize=1;" parent="1" vertex="1">
                    <mxGeometry x="410" y="1930" width="40" height="20" as="geometry"/>
                </mxCell>
                <mxCell id="109" value="" style="endArrow=none;dashed=1;html=1;dashPattern=1 3;strokeWidth=2;" parent="1" source="107" target="108" edge="1">
                    <mxGeometry width="50" height="50" relative="1" as="geometry">
                        <mxPoint x="400" y="2010" as="sourcePoint"/>
                        <mxPoint x="450" y="1960" as="targetPoint"/>
                    </mxGeometry>
                </mxCell>
                <UserObject label="资料：搜索引擎 get/post参数获取" link="https://cn.bing.com/search?q=express+%E8%8E%B7%E5%8F%96post%E5%8F%82%E6%95%B0&amp;qs=AS&amp;pq=express+%E8%8E%B7%E5%8F%96&amp;sc=8-10&amp;cvid=F845AE0C016A409F92FF07F402CE50AC&amp;FORM=QBLH&amp;sp=1" id="112">
                    <mxCell style="fillColor=none;strokeColor=none;html=1;fontColor=#0057D8;align=left;fontSize=12" parent="1" vertex="1">
                        <mxGeometry x="110" y="1857" width="125" height="33" as="geometry"/>
                    </mxCell>
                </UserObject>
                <mxCell id="115" style="edgeStyle=orthogonalEdgeStyle;rounded=0;orthogonalLoop=1;jettySize=auto;html=1;" parent="1" source="114" target="105" edge="1">
                    <mxGeometry relative="1" as="geometry"/>
                </mxCell>
                <mxCell id="114" value="html&lt;br&gt;增加&lt;br&gt;form - get&lt;br&gt;form - post" style="shape=note;whiteSpace=wrap;html=1;backgroundOutline=1;darkOpacity=0.05;" parent="1" vertex="1">
                    <mxGeometry x="670" y="2050" width="80" height="100" as="geometry"/>
                </mxCell>
                <mxCell id="118" style="curved=1;endArrow=classic;html=1;fontFamily=Helvetica;fontSize=11;fontColor=#000000;align=center;strokeColor=#000000;edgeStyle=orthogonalEdgeStyle;" parent="1" source="116" target="101" edge="1">
                    <mxGeometry relative="1" as="geometry">
                        <Array as="points">
                            <mxPoint x="319" y="2080"/>
                            <mxPoint x="180" y="2080"/>
                            <mxPoint x="180" y="1940"/>
                        </Array>
                    </mxGeometry>
                </mxCell>
                <mxCell id="126" style="edgeStyle=orthogonalEdgeStyle;rounded=0;orthogonalLoop=1;jettySize=auto;html=1;" parent="1" source="116" target="125" edge="1">
                    <mxGeometry relative="1" as="geometry"/>
                </mxCell>
                <mxCell id="116" value="点击form提交按钮" style="shape=process;whiteSpace=wrap;html=1;backgroundOutline=1;fontFamily=Helvetica;fontSize=12;fontColor=#000000;align=center;strokeColor=#000000;fillColor=#ffffff;" parent="1" vertex="1">
                    <mxGeometry x="224" y="2180" width="190" height="20" as="geometry"/>
                </mxCell>
                <mxCell id="119" value="路径" style="text;html=1;align=center;verticalAlign=middle;resizable=0;points=[];autosize=1;" parent="1" vertex="1">
                    <mxGeometry x="320" y="2140" width="40" height="20" as="geometry"/>
                </mxCell>
                <mxCell id="120" value="" style="endArrow=none;dashed=1;html=1;dashPattern=1 3;strokeWidth=2;" parent="1" source="119" target="131" edge="1">
                    <mxGeometry width="50" height="50" relative="1" as="geometry">
                        <mxPoint x="221.5" y="2140" as="sourcePoint"/>
                        <mxPoint x="428.5" y="1960" as="targetPoint"/>
                    </mxGeometry>
                </mxCell>
                <mxCell id="121" value="http方法" style="text;html=1;strokeColor=none;fillColor=none;align=center;verticalAlign=middle;whiteSpace=wrap;rounded=0;" parent="1" vertex="1">
                    <mxGeometry x="360" y="2160" width="70" height="20" as="geometry"/>
                </mxCell>
                <mxCell id="122" value="http的方法" style="text;html=1;strokeColor=none;fillColor=none;align=center;verticalAlign=middle;whiteSpace=wrap;rounded=0;" parent="1" vertex="1">
                    <mxGeometry x="340" y="1850" width="80" height="20" as="geometry"/>
                </mxCell>
                <mxCell id="123" value="" style="endArrow=none;dashed=1;html=1;dashPattern=1 3;strokeWidth=2;exitX=0.25;exitY=0;exitDx=0;exitDy=0;" parent="1" source="121" target="122" edge="1">
                    <mxGeometry width="50" height="50" relative="1" as="geometry">
                        <mxPoint x="490" y="2240" as="sourcePoint"/>
                        <mxPoint x="540" y="2190" as="targetPoint"/>
                    </mxGeometry>
                </mxCell>
                <mxCell id="125" value="新的页面" style="ellipse;whiteSpace=wrap;html=1;aspect=fixed;" parent="1" vertex="1">
                    <mxGeometry x="440" y="2150" width="80" height="80" as="geometry"/>
                </mxCell>
                <mxCell id="127" value="用户使用浏览器" style="text;html=1;strokeColor=none;fillColor=none;align=center;verticalAlign=middle;whiteSpace=wrap;rounded=0;" parent="1" vertex="1">
                    <mxGeometry x="20" y="2180" width="60" height="20" as="geometry"/>
                </mxCell>
                <mxCell id="129" value="处理Get请求的程序" style="shape=process;whiteSpace=wrap;html=1;backgroundOutline=1;size=0.05;" parent="1" vertex="1">
                    <mxGeometry x="430" y="1820" width="200" height="29" as="geometry"/>
                </mxCell>
                <mxCell id="130" value="处理Post请求的程序" style="shape=process;whiteSpace=wrap;html=1;backgroundOutline=1;size=0.05;" parent="1" vertex="1">
                    <mxGeometry x="430" y="1857" width="200" height="29" as="geometry"/>
                </mxCell>
                <mxCell id="131" value="路径" style="text;html=1;align=center;verticalAlign=middle;resizable=0;points=[];autosize=1;" parent="1" vertex="1">
                    <mxGeometry x="374" y="1870" width="40" height="20" as="geometry"/>
                </mxCell>
                <mxCell id="132" value="" style="endArrow=classic;startArrow=classic;html=1;entryX=0;entryY=0.5;entryDx=0;entryDy=0;" parent="1" target="130" edge="1">
                    <mxGeometry width="50" height="50" relative="1" as="geometry">
                        <mxPoint x="370" y="1910" as="sourcePoint"/>
                        <mxPoint x="400" y="1880" as="targetPoint"/>
                    </mxGeometry>
                </mxCell>
                <mxCell id="133" value="" style="endArrow=classic;startArrow=classic;html=1;entryX=0;entryY=0.5;entryDx=0;entryDy=0;" parent="1" target="129" edge="1">
                    <mxGeometry width="50" height="50" relative="1" as="geometry">
                        <mxPoint x="370" y="1910" as="sourcePoint"/>
                        <mxPoint x="440" y="1881.5" as="targetPoint"/>
                    </mxGeometry>
                </mxCell>
                <mxCell id="134" value="" style="rounded=1;whiteSpace=wrap;html=1;" vertex="1" parent="1">
                    <mxGeometry y="2630" width="810" height="220" as="geometry"/>
                </mxCell>
                <mxCell id="135" value="&lt;br&gt;&lt;br&gt;处理请求的接口" style="ellipse;shape=cloud;whiteSpace=wrap;html=1;fillColor=#d5e8d4;strokeColor=#82b366;" vertex="1" parent="1">
                    <mxGeometry x="202.5" y="2390" width="180" height="100" as="geometry"/>
                </mxCell>
                <mxCell id="136" value="HTTP 协议" style="rounded=0;whiteSpace=wrap;html=1;" vertex="1" parent="1">
                    <mxGeometry x="77.5" y="2540" width="430" height="60" as="geometry"/>
                </mxCell>
                <mxCell id="137" style="edgeStyle=orthogonalEdgeStyle;curved=1;rounded=0;orthogonalLoop=1;jettySize=auto;html=1;" edge="1" parent="1" source="139" target="135">
                    <mxGeometry relative="1" as="geometry">
                        <Array as="points">
                            <mxPoint x="117.5" y="2440"/>
                        </Array>
                    </mxGeometry>
                </mxCell>
                <mxCell id="138" style="edgeStyle=orthogonalEdgeStyle;rounded=0;orthogonalLoop=1;jettySize=auto;html=1;" edge="1" parent="1" source="139" target="150">
                    <mxGeometry relative="1" as="geometry"/>
                </mxCell>
                <mxCell id="173" style="edgeStyle=orthogonalEdgeStyle;rounded=0;orthogonalLoop=1;jettySize=auto;html=1;" edge="1" parent="1" source="139" target="170">
                    <mxGeometry relative="1" as="geometry"/>
                </mxCell>
                <mxCell id="139" value="页面1" style="ellipse;whiteSpace=wrap;html=1;aspect=fixed;strokeColor=#000000;" vertex="1" parent="1">
                    <mxGeometry x="90" y="2655" width="80" height="80" as="geometry"/>
                </mxCell>
                <mxCell id="140" value="硬盘上。&lt;br&gt;前端文件" style="shape=cube;whiteSpace=wrap;html=1;boundedLbl=1;backgroundOutline=1;darkOpacity=0.05;darkOpacity2=0.1;strokeColor=#6c8ebf;fillColor=#dae8fc;" vertex="1" parent="1">
                    <mxGeometry x="640" y="2357" width="120" height="80" as="geometry"/>
                </mxCell>
                <mxCell id="141" value="" style="endArrow=classic;startArrow=classic;html=1;exitX=0.875;exitY=0.5;exitDx=0;exitDy=0;exitPerimeter=0;" edge="1" parent="1" source="163" target="140">
                    <mxGeometry width="50" height="50" relative="1" as="geometry">
                        <mxPoint x="397.5" y="2480" as="sourcePoint"/>
                        <mxPoint x="447.5" y="2430" as="targetPoint"/>
                    </mxGeometry>
                </mxCell>
                <mxCell id="142" value="路径" style="text;html=1;align=center;verticalAlign=middle;resizable=0;points=[];autosize=1;" vertex="1" parent="1">
                    <mxGeometry x="167.5" y="2630" width="40" height="20" as="geometry"/>
                </mxCell>
                <mxCell id="143" value="路径" style="text;html=1;align=center;verticalAlign=middle;resizable=0;points=[];autosize=1;" vertex="1" parent="1">
                    <mxGeometry x="590" y="2400" width="40" height="20" as="geometry"/>
                </mxCell>
                <mxCell id="144" value="" style="endArrow=none;dashed=1;html=1;dashPattern=1 3;strokeWidth=2;" edge="1" parent="1" source="142" target="143">
                    <mxGeometry width="50" height="50" relative="1" as="geometry">
                        <mxPoint x="387.5" y="2510" as="sourcePoint"/>
                        <mxPoint x="437.5" y="2460" as="targetPoint"/>
                    </mxGeometry>
                </mxCell>
                <mxCell id="146" style="edgeStyle=orthogonalEdgeStyle;rounded=0;orthogonalLoop=1;jettySize=auto;html=1;" edge="1" parent="1" source="147" target="140">
                    <mxGeometry relative="1" as="geometry"/>
                </mxCell>
                <mxCell id="147" value="html&lt;br&gt;增加&lt;br&gt;form - get&lt;br&gt;form - post" style="shape=note;whiteSpace=wrap;html=1;backgroundOutline=1;darkOpacity=0.05;" vertex="1" parent="1">
                    <mxGeometry x="660" y="2480" width="80" height="100" as="geometry"/>
                </mxCell>
                <mxCell id="148" style="curved=1;endArrow=classic;html=1;fontFamily=Helvetica;fontSize=11;fontColor=#000000;align=center;strokeColor=#000000;edgeStyle=orthogonalEdgeStyle;" edge="1" parent="1" source="150" target="135">
                    <mxGeometry relative="1" as="geometry">
                        <Array as="points">
                            <mxPoint x="306.5" y="2580"/>
                            <mxPoint x="167.5" y="2580"/>
                            <mxPoint x="167.5" y="2440"/>
                        </Array>
                    </mxGeometry>
                </mxCell>
                <mxCell id="149" style="edgeStyle=orthogonalEdgeStyle;rounded=0;orthogonalLoop=1;jettySize=auto;html=1;" edge="1" parent="1" source="150" target="156">
                    <mxGeometry relative="1" as="geometry"/>
                </mxCell>
                <mxCell id="150" value="js 异步请求&lt;br&gt;xmlhttp" style="shape=process;whiteSpace=wrap;html=1;backgroundOutline=1;fontFamily=Helvetica;fontSize=12;align=center;strokeColor=#82b366;fillColor=#d5e8d4;size=0.04473684210526316;" vertex="1" parent="1">
                    <mxGeometry x="211.5" y="2680" width="190" height="30" as="geometry"/>
                </mxCell>
                <mxCell id="151" value="路径" style="text;html=1;align=center;verticalAlign=middle;resizable=0;points=[];autosize=1;" vertex="1" parent="1">
                    <mxGeometry x="307.5" y="2640" width="40" height="20" as="geometry"/>
                </mxCell>
                <mxCell id="152" value="" style="endArrow=none;dashed=1;html=1;dashPattern=1 3;strokeWidth=2;" edge="1" parent="1" source="151" target="160">
                    <mxGeometry width="50" height="50" relative="1" as="geometry">
                        <mxPoint x="209" y="2640" as="sourcePoint"/>
                        <mxPoint x="416" y="2460" as="targetPoint"/>
                    </mxGeometry>
                </mxCell>
                <mxCell id="153" value="http方法" style="text;html=1;strokeColor=none;fillColor=none;align=center;verticalAlign=middle;whiteSpace=wrap;rounded=0;" vertex="1" parent="1">
                    <mxGeometry x="347.5" y="2660" width="70" height="20" as="geometry"/>
                </mxCell>
                <mxCell id="154" value="http的方法" style="text;html=1;strokeColor=none;fillColor=none;align=center;verticalAlign=middle;whiteSpace=wrap;rounded=0;" vertex="1" parent="1">
                    <mxGeometry x="450" y="2300" width="80" height="20" as="geometry"/>
                </mxCell>
                <mxCell id="155" value="" style="endArrow=none;dashed=1;html=1;dashPattern=1 3;strokeWidth=2;exitX=0.25;exitY=0;exitDx=0;exitDy=0;" edge="1" parent="1" source="153" target="154">
                    <mxGeometry width="50" height="50" relative="1" as="geometry">
                        <mxPoint x="477.5" y="2740" as="sourcePoint"/>
                        <mxPoint x="527.5" y="2690" as="targetPoint"/>
                    </mxGeometry>
                </mxCell>
                <mxCell id="169" style="edgeStyle=orthogonalEdgeStyle;rounded=0;orthogonalLoop=1;jettySize=auto;html=1;" edge="1" parent="1" source="156" target="168">
                    <mxGeometry relative="1" as="geometry"/>
                </mxCell>
                <mxCell id="156" value="异步请求&lt;br&gt;得道数据" style="ellipse;whiteSpace=wrap;html=1;aspect=fixed;" vertex="1" parent="1">
                    <mxGeometry x="440" y="2655" width="80" height="80" as="geometry"/>
                </mxCell>
                <mxCell id="157" value="用户使用浏览器" style="text;html=1;strokeColor=none;fillColor=none;align=center;verticalAlign=middle;whiteSpace=wrap;rounded=0;" vertex="1" parent="1">
                    <mxGeometry x="15" y="2680" width="60" height="20" as="geometry"/>
                </mxCell>
                <mxCell id="158" value="处理Get请求的程序" style="shape=process;whiteSpace=wrap;html=1;backgroundOutline=1;size=0.05;" vertex="1" parent="1">
                    <mxGeometry x="417.5" y="2320" width="200" height="29" as="geometry"/>
                </mxCell>
                <mxCell id="159" value="处理Post请求的程序" style="shape=process;whiteSpace=wrap;html=1;backgroundOutline=1;size=0.05;" vertex="1" parent="1">
                    <mxGeometry x="417.5" y="2357" width="200" height="29" as="geometry"/>
                </mxCell>
                <mxCell id="160" value="路径" style="text;html=1;align=center;verticalAlign=middle;resizable=0;points=[];autosize=1;" vertex="1" parent="1">
                    <mxGeometry x="397.5" y="2300" width="40" height="20" as="geometry"/>
                </mxCell>
                <mxCell id="161" value="" style="endArrow=classic;startArrow=classic;html=1;entryX=0;entryY=0.5;entryDx=0;entryDy=0;exitX=0.96;exitY=0.7;exitDx=0;exitDy=0;exitPerimeter=0;" edge="1" parent="1" target="159" source="135">
                    <mxGeometry width="50" height="50" relative="1" as="geometry">
                        <mxPoint x="357.5" y="2410" as="sourcePoint"/>
                        <mxPoint x="387.5" y="2380" as="targetPoint"/>
                    </mxGeometry>
                </mxCell>
                <mxCell id="162" value="" style="endArrow=classic;startArrow=classic;html=1;entryX=0;entryY=0.5;entryDx=0;entryDy=0;exitX=0.96;exitY=0.7;exitDx=0;exitDy=0;exitPerimeter=0;" edge="1" parent="1" target="158" source="135">
                    <mxGeometry width="50" height="50" relative="1" as="geometry">
                        <mxPoint x="357.5" y="2410" as="sourcePoint"/>
                        <mxPoint x="427.5" y="2381.5" as="targetPoint"/>
                    </mxGeometry>
                </mxCell>
                <mxCell id="163" value="6. 静态文件，&lt;br&gt;server" style="ellipse;shape=cloud;whiteSpace=wrap;html=1;fillColor=#d5e8d4;strokeColor=#82b366;" vertex="1" parent="1">
                    <mxGeometry x="181.5" y="2349" width="180" height="100" as="geometry"/>
                </mxCell>
                <mxCell id="165" value="我们可以用，IP，域名，端口等方式，把多个server，包装成一个地址" style="text;html=1;strokeColor=none;fillColor=none;align=center;verticalAlign=middle;whiteSpace=wrap;rounded=0;" vertex="1" parent="1">
                    <mxGeometry x="-16.5" y="2337" width="198" height="20" as="geometry"/>
                </mxCell>
                <mxCell id="166" value="屏幕会闪动，因为url变化了" style="text;html=1;strokeColor=none;fillColor=none;align=center;verticalAlign=middle;whiteSpace=wrap;rounded=0;" vertex="1" parent="1">
                    <mxGeometry x="635" y="2170" width="150" height="20" as="geometry"/>
                </mxCell>
                <mxCell id="167" value="" style="endArrow=none;dashed=1;html=1;dashPattern=1 3;strokeWidth=2;entryX=0;entryY=0.5;entryDx=0;entryDy=0;" edge="1" parent="1" source="125" target="166">
                    <mxGeometry width="50" height="50" relative="1" as="geometry">
                        <mxPoint x="670" y="2310" as="sourcePoint"/>
                        <mxPoint x="720" y="2260" as="targetPoint"/>
                    </mxGeometry>
                </mxCell>
                <mxCell id="171" style="edgeStyle=orthogonalEdgeStyle;rounded=0;orthogonalLoop=1;jettySize=auto;html=1;entryX=1;entryY=0.5;entryDx=0;entryDy=0;" edge="1" parent="1" source="168" target="170">
                    <mxGeometry relative="1" as="geometry">
                        <Array as="points">
                            <mxPoint x="655" y="2800"/>
                        </Array>
                    </mxGeometry>
                </mxCell>
                <mxCell id="172" value="修改，页面1的，dom对象，document" style="edgeLabel;html=1;align=center;verticalAlign=middle;resizable=0;points=[];" vertex="1" connectable="0" parent="171">
                    <mxGeometry x="0.1171" y="1" relative="1" as="geometry">
                        <mxPoint as="offset"/>
                    </mxGeometry>
                </mxCell>
                <mxCell id="168" value="js 处理接口返回的数据" style="shape=process;whiteSpace=wrap;html=1;backgroundOutline=1;fontFamily=Helvetica;fontSize=12;align=center;strokeColor=#82b366;fillColor=#d5e8d4;size=0.04473684210526316;" vertex="1" parent="1">
                    <mxGeometry x="560" y="2680" width="190" height="30" as="geometry"/>
                </mxCell>
                <mxCell id="170" value="页面1&lt;br&gt;产生变化" style="ellipse;whiteSpace=wrap;html=1;aspect=fixed;" vertex="1" parent="1">
                    <mxGeometry x="90" y="2760" width="80" height="80" as="geometry"/>
                </mxCell>
                <mxCell id="174" value="页面，没有跳转，只是变化" style="text;html=1;strokeColor=none;fillColor=none;align=center;verticalAlign=middle;whiteSpace=wrap;rounded=0;" vertex="1" parent="1">
                    <mxGeometry x="17.5" y="2790" width="60" height="20" as="geometry"/>
                </mxCell>
            </root>
        </mxGraphModel>
    </diagram>
</mxfile>